<svg width="30" height="37" viewBox="0 0 30 37" fill="none" xmlns="http://www.w3.org/2000/svg">
<path d="M27.5529 0C27.5529 0 25.1782 0 22.7662 3.61691C21.5726 2.4222 17.9433 2.4109 16.7406 2.4109C15.5335 2.4109 11.9064 2.4222 10.7117 3.61691C8.29968 0 5.9306 0 5.9306 0C4.64095 3.23713 5.65029 5.43328 5.8933 6.0278C4.68842 7.23382 3.47788 8.43983 3.47788 14.4676C3.47788 20.4954 7.86113 23.5189 13.1282 24.1123C12.4512 24.7012 11.9222 26.5232 11.9222 27.7293C10.5693 28.3317 6.80431 28.9104 4.68842 25.3184C4.68842 25.3184 3.48241 22.9075 1.07151 22.9075C1.07151 22.9075 -1.33939 22.6803 1.07151 24.1135C1.07151 24.1135 2.27752 25.3195 3.4824 27.7304C3.4824 27.7304 5.32364 32.7669 11.9222 31.3473C11.9358 33.3083 11.9222 36.1702 11.9222 36.1702H21.5613V27.7304C21.5613 26.7764 21.0346 24.7012 20.3553 24.1135C25.6224 23.5201 30 20.4966 30 14.4688C30 8.44096 28.794 7.23495 27.5891 6.02893C27.8344 5.43328 28.8415 3.23713 27.5529 0Z" fill="#1B1919"/>
</svg>
