<svg width="30" height="30" viewBox="0 0 30 30" fill="none" xmlns="http://www.w3.org/2000/svg">
<path d="M14.9976 0C10.9242 0 10.4117 0.0170843 8.81305 0.0903026C7.56933 0.115581 6.3389 0.351599 5.1741 0.788318C4.17297 1.16261 3.26642 1.75254 2.51871 2.51627C1.75566 3.2655 1.16443 4.17151 0.785877 5.17166C0.348988 6.33717 0.113768 7.56857 0.0903026 8.81305C0.0195249 10.4117 0 10.9217 0 14.9951C0 19.0685 0.0170843 19.5761 0.0903026 21.1772C0.115581 22.4209 0.351599 23.6513 0.788318 24.8161C1.16446 25.8163 1.75413 26.7225 2.51627 27.4715C3.26486 28.2354 4.17105 28.8267 5.17166 29.2044C6.33749 29.6401 7.56869 29.8753 8.81305 29.8999C10.4117 29.9732 10.9217 29.9902 14.9951 29.9902C19.0685 29.9902 19.5761 29.9732 21.1772 29.8999C22.4215 29.8753 23.6528 29.6401 24.8186 29.2044C25.8159 28.8175 26.7216 28.2271 27.478 27.4707C28.2344 26.7143 28.8249 25.8086 29.2117 24.8113C29.6461 23.6458 29.882 22.4158 29.9097 21.1723C29.9805 19.5737 30 19.0636 30 14.9902C30 10.9169 29.9805 10.4068 29.9097 8.80817C29.882 7.56391 29.6461 6.33308 29.2117 5.16678C28.835 4.16628 28.2444 3.26007 27.4813 2.51139C26.734 1.74709 25.8274 1.15709 24.8259 0.783436C23.6569 0.347302 22.4223 0.112924 21.1747 0.0903026C19.5737 0.0170843 19.0661 0 14.9927 0H14.9976ZM13.6503 2.70176H14.9976C19.0002 2.70176 19.4736 2.7164 21.0552 2.78962C22.0061 2.80044 22.948 2.97464 23.8399 3.30459C24.491 3.54513 25.0799 3.92879 25.563 4.42727C26.0604 4.9112 26.4439 5.49979 26.6856 6.15034C27.0156 7.04222 27.1898 7.98418 27.2006 8.93508C27.2738 10.5142 27.2885 10.9901 27.2885 14.9927C27.2885 18.9953 27.2738 19.4688 27.2006 21.0503C27.1901 22.0004 27.0158 22.9416 26.6856 23.8326C26.4359 24.4788 26.0536 25.0656 25.5635 25.5552C25.0734 26.0449 24.4863 26.4266 23.8399 26.6759C22.9486 27.0084 22.0064 27.1835 21.0552 27.1933C19.4761 27.2665 19.0002 27.2812 14.9976 27.2812C10.995 27.2812 10.519 27.2665 8.93752 27.1933C7.98648 27.1817 7.04452 27.0067 6.15278 26.6759C5.50099 26.4364 4.91131 26.0535 4.42727 25.5556C3.92968 25.0723 3.54686 24.4835 3.30703 23.8326C2.97624 22.9408 2.80122 21.9989 2.78962 21.0478C2.71884 19.4663 2.7042 18.9928 2.7042 14.9878C2.7042 10.9828 2.71884 10.5117 2.78962 8.9302C2.79976 7.97902 2.97482 7.0368 3.30703 6.14546C3.54686 5.49454 3.92968 4.90573 4.42727 4.42239C4.9117 3.92438 5.50121 3.54082 6.15278 3.29971C7.0448 2.96995 7.98659 2.79496 8.93752 2.7823C10.3213 2.72128 10.8558 2.70176 13.6503 2.69932V2.70176ZM23.0003 5.19118C22.644 5.19118 22.2957 5.29688 21.9994 5.4949C21.7031 5.69293 21.4723 5.97438 21.336 6.30364C21.1998 6.6329 21.1642 6.99518 21.2339 7.34464C21.3036 7.6941 21.4754 8.01504 21.7276 8.26684C21.9797 8.51864 22.3009 8.68999 22.6504 8.75921C23 8.82843 23.3622 8.79242 23.6913 8.65572C24.0204 8.51902 24.3015 8.28778 24.4991 7.99125C24.6968 7.69473 24.802 7.34625 24.8015 6.98991C24.8015 6.75349 24.7549 6.5194 24.6643 6.301C24.5738 6.08261 24.4411 5.88421 24.2738 5.71715C24.1065 5.55009 23.9079 5.41765 23.6894 5.3274C23.4709 5.23715 23.2367 5.19086 23.0003 5.19118ZM14.9976 7.29499C13.4746 7.29499 11.9859 7.74659 10.7196 8.5927C9.45332 9.4388 8.46637 10.6414 7.88357 12.0484C7.30076 13.4554 7.14827 15.0037 7.44538 16.4973C7.7425 17.991 8.47586 19.3631 9.55275 20.4399C10.6296 21.5168 12.0017 22.2502 13.4953 22.5473C14.989 22.8444 16.5373 22.6919 17.9443 22.1091C19.3513 21.5263 20.5539 20.5394 21.4 19.2731C22.2461 18.0068 22.6977 16.5181 22.6977 14.9951C22.697 12.9531 21.8856 10.9949 20.4417 9.55102C18.9977 8.10711 17.0396 7.29564 14.9976 7.29499ZM14.9976 9.99675C15.9865 9.9953 16.9536 10.2872 17.7765 10.8356C18.5994 11.3839 19.2412 12.164 19.6207 13.0772C20.0001 13.9905 20.1001 14.9957 19.9081 15.9658C19.7161 16.9358 19.2406 17.8271 18.5419 18.5269C17.8431 19.2267 16.9525 19.7035 15.9827 19.8969C15.0129 20.0904 14.0075 19.9918 13.0938 19.6137C12.18 19.2356 11.399 18.595 10.8494 17.7728C10.2998 16.9507 10.0065 15.984 10.0065 14.9951C10.0091 13.6724 10.5358 12.4047 11.4714 11.4696C12.4069 10.5346 13.6749 10.0084 14.9976 10.0065V9.99675Z" fill="white"/>
</svg>
