<svg width="30" height="29" viewBox="0 0 30 29" fill="none" xmlns="http://www.w3.org/2000/svg">
<path d="M30 28.6734V17.5809C30 11.6372 26.8275 8.87156 22.5975 8.87156C19.1841 8.87156 17.6541 10.7494 16.8019 12.0675V9.32625H10.3706C10.4559 11.1422 10.3706 28.6734 10.3706 28.6734H16.8019V17.8687C16.8019 17.2922 16.8431 16.7137 17.0138 16.3012C17.4778 15.1453 18.5363 13.9491 20.3119 13.9491C22.6397 13.9491 23.5697 15.7228 23.5697 18.3234V28.6744H30V28.6734V28.6734ZM3.59531 6.68531C5.83688 6.68531 7.23469 5.19844 7.23469 3.34125C7.19344 1.44375 5.83781 0 3.63844 0C1.43906 0 0 1.44281 0 3.34125C0 5.19844 1.39594 6.68531 3.555 6.68531H3.59531ZM6.81094 28.6734V9.32625H0.380625V28.6734H6.81094V28.6734Z" fill="white"/>
</svg>
