<svg width="74" height="69" viewBox="0 0 74 69" fill="none" xmlns="http://www.w3.org/2000/svg">
<path d="M38.9576 57.9557L38.4033 56.5188C38.6309 56.9757 38.8176 57.456 38.9576 57.9557Z" fill="white"/>
<path d="M39.2904 60.3363C39.2904 65.1101 35.4179 68.9797 30.643 68.9797H30.6333L24.8334 53.9331L6.84436 7.26082H6.83852C5.53928 4.07765 3.08667 1.48366 0 0H16.6198L19.4205 7.26082L38.4054 56.5173L38.9597 57.9543C39.1756 58.7127 39.2904 59.5119 39.2904 60.3363Z" fill="white"/>
<path d="M55.5536 20.884L55.2832 21.5996C55.3629 21.3566 55.4544 21.1174 55.5536 20.884Z" fill="white"/>
<path d="M44.3281 50.5671L44.3123 50.6047H44.2866C44.3005 50.5929 44.3143 50.579 44.3281 50.5671Z" fill="white"/>
<path d="M57.715 15.1709L57.6975 15.2176C57.2949 15.1884 56.8904 15.1709 56.48 15.1709H57.715Z" fill="white"/>
<path d="M42.3673 24.281L41.6865 26.0836C41.8732 25.4652 42.1027 24.8624 42.3673 24.281Z" fill="white"/>
<path opacity="0.5" d="M45.7555 50.789L45.6758 50.6685C45.7069 50.7073 45.7322 50.7482 45.7555 50.789Z" fill="white"/>
<path opacity="0.5" d="M67.5526 65.2655C67.4125 65.0788 67.2842 64.8824 67.1616 64.6821L67.5526 65.2655Z" fill="white"/>
<path d="M73.2469 68.6256C73.2469 68.6412 73.2333 68.6548 73.2177 68.6548H57.6482L55.8763 65.9928L54.0189 63.2024L45.7605 50.7964C45.7586 50.7925 45.7566 50.7905 45.7547 50.7866C45.7314 50.7439 45.7061 50.705 45.675 50.6661L45.6322 50.6019H45.6186C45.4513 50.425 45.214 50.3161 44.9514 50.3161C44.7103 50.3161 44.4885 50.4094 44.3252 50.565C44.3115 50.5747 44.2979 50.5883 44.2843 50.6019H44.3096L42.4171 55.6032L41.9523 56.8341L41.9289 56.8944C41.9251 56.8963 41.9192 56.8983 41.9134 56.8983C41.8978 56.8983 41.8823 56.8885 41.8745 56.873C41.8784 56.8574 41.8823 56.8399 41.8842 56.8244C41.9523 56.486 41.9892 56.136 41.9951 55.7821C41.997 55.7471 41.997 55.7121 41.997 55.6771C41.997 55.1307 41.9231 54.6018 41.7831 54.0982C41.7267 53.8959 41.6605 53.6956 41.5827 53.5031C41.5458 53.4098 41.5069 53.3165 41.4641 53.2251L41.4622 53.2212L38.9181 47.2573L36.1602 40.6732L41.678 26.0835L42.3588 24.281C43.9089 20.8547 46.6688 18.0935 50.0939 16.5418C52.0389 15.6609 54.1978 15.1709 56.4715 15.1709C56.8819 15.1709 57.2864 15.1865 57.6891 15.2176L57.7066 15.1709H62.2967C61.7171 15.309 61.1569 15.4976 60.6221 15.7348C58.3445 16.7382 56.524 18.5796 55.5496 20.8703C55.5457 20.8742 55.5457 20.88 55.5437 20.8839C55.4446 21.1172 55.3551 21.3564 55.2734 21.5995L54.4409 23.8007L47.9622 40.9299C50.7008 41.8866 53.0483 43.6717 54.7113 45.9837L55.2831 46.8432L66.0369 62.9982L67.1455 64.6666C67.1494 64.6724 67.1513 64.6763 67.1552 64.6822C67.2778 64.8824 67.4061 65.0788 67.5462 65.2655C68.859 67.0642 70.8857 68.3126 73.2099 68.5945C73.2333 68.5945 73.2469 68.6081 73.2469 68.6256Z" fill="white"/>
<path d="M55.2925 46.8451L54.7207 45.9856C54.921 46.2637 55.1116 46.5514 55.2925 46.8451Z" fill="white"/>
</svg>
