<svg width="30" height="28" viewBox="0 0 30 28" fill="none" xmlns="http://www.w3.org/2000/svg">
<path d="M27.81 0.305231L1.1675 11.3939C1.1675 11.3939 -0.092118 11.8518 0.00538157 12.6963C0.105506 13.5423 1.13338 13.9293 1.13338 13.9293L7.83722 16.3225C7.83722 16.3225 9.86071 23.362 10.259 24.7015C10.6572 26.0372 10.9767 26.0687 10.9767 26.0687C11.3476 26.2397 11.6847 25.9675 11.6847 25.9675L16.0159 21.7791L22.7663 27.2699C24.5921 28.1147 25.2566 26.3545 25.2566 26.3545L30 0.975353C30 -0.715139 27.81 0.305231 27.81 0.305231ZM23.0933 24.3134L15.8716 18.4409L13.6306 20.6073L14.1233 15.9982L23.7495 6.87483L10.628 14.665L4.80761 12.5876L27.0139 3.34459L23.0933 24.3134Z" fill="white"/>
</svg>
