<svg width="30" height="19" viewBox="0 0 30 19" fill="none" xmlns="http://www.w3.org/2000/svg">
<path fill-rule="evenodd" clip-rule="evenodd" d="M29.33 1.28651C29.537 0.547246 29.33 0 28.3397 0H25.0538C24.2166 0 23.8385 0.47044 23.6224 0.988883C23.6224 0.988883 21.957 5.32845 19.5893 8.15109C18.8241 8.96716 18.473 9.22638 18.0589 9.22638C17.8519 9.22638 17.5368 8.96716 17.5368 8.22789V1.29611C17.5368 0.403234 17.3027 0.00960081 16.6095 0.00960081H11.4511C10.929 0.00960081 10.6139 0.422436 10.6139 0.816069C10.6139 1.66094 11.7932 1.85296 11.9192 4.22436V9.37999C11.9192 10.5129 11.7302 10.7145 11.3071 10.7145C10.1908 10.7145 7.49004 6.35574 5.8786 1.36331C5.56352 0.393633 5.24843 0 4.4112 0H1.12531C0.189052 0 0 0.47044 0 0.988883C0 1.92016 1.1163 6.51895 5.18541 12.5963C7.89515 16.7534 11.7212 19 15.1961 19C17.2847 19 17.5368 18.5008 17.5368 17.6367V14.4972C17.5368 13.4987 17.7348 13.2971 18.392 13.2971C18.8781 13.2971 19.7154 13.5563 21.6599 15.5629C23.8835 17.9343 24.2526 19 25.5039 19H28.7898C29.7261 19 30.1942 18.5008 29.9242 17.5119C29.6271 16.5326 28.5648 15.1021 27.1514 13.4123C26.3862 12.4522 25.2429 11.4058 24.8918 10.8873C24.4056 10.2153 24.5407 9.92724 24.8918 9.33199C24.8918 9.33199 28.8889 3.32188 29.312 1.28651H29.33Z" fill="white"/>
</svg>
