<svg width="30" height="31" viewBox="0 0 30 31" fill="none" xmlns="http://www.w3.org/2000/svg">
<path fill-rule="evenodd" clip-rule="evenodd" d="M25.6291 4.35999C22.809 1.54992 19.0584 0.00157944 15.0626 0C6.82939 0 0.128541 6.66881 0.125246 14.8659C0.124148 17.4861 0.812005 20.0438 2.1191 22.2983L0 30.0023L7.91853 27.935C10.1002 29.1193 12.5567 29.7435 15.0567 29.7445H15.0628C23.2952 29.7445 29.9967 23.0749 30 14.8777C30.0016 10.9053 28.4493 7.17006 25.6291 4.35999V4.35999ZM15.0628 27.2336H15.0577C12.83 27.2327 10.6449 26.6371 8.73875 25.5112L8.28536 25.2434L3.58646 26.4702L4.84071 21.9104L4.54547 21.4429C3.30269 19.4755 2.64628 17.2016 2.64725 14.8668C2.64998 8.05374 8.2195 2.51091 15.0677 2.51091C18.3838 2.51217 21.501 3.79917 23.8451 6.1348C26.1891 8.47043 27.4793 11.5751 27.478 14.8768C27.4752 21.6903 21.9057 27.2336 15.0628 27.2336V27.2336ZM21.8728 17.9791C21.4996 17.7932 19.6646 16.8945 19.3225 16.7705C18.9804 16.6465 18.7316 16.5846 18.4827 16.9565C18.2339 17.3283 17.5187 18.1651 17.3009 18.4129C17.0832 18.6609 16.8655 18.6919 16.4923 18.5059C16.119 18.32 14.9164 17.9278 13.4908 16.6622C12.3813 15.6773 11.6322 14.4607 11.4145 14.0888C11.1968 13.7169 11.3914 13.5159 11.5782 13.3307C11.7461 13.1643 11.9514 12.8968 12.1381 12.6799C12.3246 12.463 12.3868 12.308 12.5112 12.0601C12.6357 11.8122 12.5735 11.5953 12.4801 11.4093C12.3868 11.2234 11.6404 9.39497 11.3294 8.65122C11.0265 7.92686 10.7187 8.02487 10.4896 8.01353C10.2722 8.00275 10.0231 8.00045 9.77432 8.00045C9.5255 8.00045 9.12116 8.09343 8.77902 8.46529C8.43693 8.83719 7.47279 9.73589 7.47279 11.5643C7.47279 13.3927 8.81014 15.1591 8.99677 15.407C9.18336 15.6549 11.6286 19.4071 15.3726 21.0161C16.2631 21.3988 16.9583 21.6274 17.5003 21.7987C18.3945 22.0813 19.2081 22.0414 19.8512 21.9458C20.5683 21.8392 22.0594 21.0471 22.3704 20.1794C22.6815 19.3117 22.6815 18.5679 22.5881 18.413C22.4949 18.258 22.2461 18.1651 21.8728 17.9791" fill="white"/>
</svg>
